<svg xmlns="http://www.w3.org/2000/svg" width="1200" height="630" viewBox="0 0 1200 630" role="img" aria-labelledby="title desc">
  <title id="title">Portfolio DAW - Sergio Daniel Martínez Gómez</title>
  <desc id="desc">Imagen Open Graph del portfolio DAW con proyectos web, JSON, filtros y GitHub Pages.</desc>
  <defs>
    <linearGradient id="bg" x1="0" x2="1" y1="0" y2="1">
      <stop offset="0%" stop-color="#070911"/>
      <stop offset="52%" stop-color="#111827"/>
      <stop offset="100%" stop-color="#172033"/>
    </linearGradient>
    <radialGradient id="glowA" cx="20%" cy="15%" r="55%">
      <stop offset="0%" stop-color="#7dd3fc" stop-opacity="0.45"/>
      <stop offset="100%" stop-color="#7dd3fc" stop-opacity="0"/>
    </radialGradient>
    <radialGradient id="glowB" cx="82%" cy="24%" r="48%">
      <stop offset="0%" stop-color="#f7d774" stop-opacity="0.35"/>
      <stop offset="100%" stop-color="#f7d774" stop-opacity="0"/>
    </radialGradient>
    <filter id="shadow" x="-20%" y="-20%" width="140%" height="140%">
      <feDropShadow dx="0" dy="24" stdDeviation="28" flood-color="#000000" flood-opacity="0.38"/>
    </filter>
  </defs>

  <rect width="1200" height="630" fill="url(#bg)"/>
  <rect width="1200" height="630" fill="url(#glowA)"/>
  <rect width="1200" height="630" fill="url(#glowB)"/>

  <g opacity="0.16">
    <path d="M0 120H1200M0 240H1200M0 360H1200M0 480H1200" stroke="#ffffff" stroke-width="1"/>
    <path d="M160 0V630M320 0V630M480 0V630M640 0V630M800 0V630M960 0V630" stroke="#ffffff" stroke-width="1"/>
  </g>

  <rect x="74" y="70" width="1052" height="490" rx="38" fill="rgba(255,255,255,0.075)" stroke="rgba(255,255,255,0.16)" filter="url(#shadow)"/>

  <g transform="translate(110 110)">
    <rect x="0" y="0" width="78" height="78" rx="24" fill="#7dd3fc"/>
    <rect x="16" y="16" width="46" height="46" rx="14" fill="#a78bfa" opacity="0.72"/>
    <text x="39" y="49" text-anchor="middle" font-family="Inter, Arial, sans-serif" font-size="24" font-weight="900" fill="#07111f">SD</text>
  </g>

  <text x="110" y="242" font-family="Inter, Arial, sans-serif" font-size="34" font-weight="800" fill="#f7d774" letter-spacing="7">PORTFOLIO DAW</text>
  <text x="110" y="326" font-family="Inter, Arial, sans-serif" font-size="64" font-weight="900" fill="#ffffff">Sergio Daniel</text>
  <text x="110" y="392" font-family="Inter, Arial, sans-serif" font-size="64" font-weight="900" fill="#dbeafe">Martínez Gómez</text>
  <text x="110" y="452" font-family="Inter, Arial, sans-serif" font-size="28" font-weight="750" fill="#b7c0d8">Desarrollo Web · JavaScript · GitHub Pages · JSON</text>

  <g transform="translate(760 138)">
    <rect x="0" y="0" width="276" height="86" rx="24" fill="rgba(125,211,252,0.13)" stroke="rgba(125,211,252,0.34)"/>
    <text x="28" y="36" font-family="Inter, Arial, sans-serif" font-size="18" font-weight="900" fill="#7dd3fc">16 proyectos</text>
    <text x="28" y="64" font-family="Inter, Arial, sans-serif" font-size="16" font-weight="750" fill="#dbeafe">catálogo interactivo</text>

    <rect x="0" y="112" width="276" height="86" rx="24" fill="rgba(247,215,116,0.12)" stroke="rgba(247,215,116,0.34)"/>
    <text x="28" y="148" font-family="Inter, Arial, sans-serif" font-size="18" font-weight="900" fill="#f7d774">Panel destacado</text>
    <text x="28" y="176" font-family="Inter, Arial, sans-serif" font-size="16" font-weight="750" fill="#dbeafe">showcase visual ligero</text>

    <rect x="0" y="224" width="276" height="86" rx="24" fill="rgba(167,139,250,0.13)" stroke="rgba(167,139,250,0.34)"/>
    <text x="28" y="260" font-family="Inter, Arial, sans-serif" font-size="18" font-weight="900" fill="#c4b5fd">SEO avanzado</text>
    <text x="28" y="288" font-family="Inter, Arial, sans-serif" font-size="16" font-weight="750" fill="#dbeafe">presentación profesional</text>
  </g>

  <text x="110" y="535" font-family="Inter, Arial, sans-serif" font-size="21" font-weight="800" fill="#7dd3fc">daw1bsergiomg26.github.io/portfolio-daw-sergio</text>
</svg>
